<svg width="846" height="736" viewBox="0 0 846 736" fill="none" xmlns="http://www.w3.org/2000/svg">
<g opacity="0.3" clip-path="url(#clip0_43_26)">
<path d="M410.971 394.83C406.323 393.638 402.89 396.891 398.594 400.293C393.295 404.312 388.527 412.672 377.943 393.885C374.087 387.014 373.657 375.561 365.083 361.968C359.271 352.775 341.033 329.546 371.001 324.37C387.602 321.502 411.707 333.742 419.306 346.838C424.397 355.713 405.561 363.622 415.13 375.269C420.532 382.095 426.858 392.973 424.147 396.544C421.614 399.863 415.403 396.06 410.971 394.83Z" stroke="white" stroke-width="0.5"/>
<path d="M434.381 341.575C441.525 350.759 422.095 361.652 429.599 376.759C430.62 378.8 431.677 381.057 432.518 383.349C435.623 391.015 441.099 398.271 440.009 402.227C438.504 408.916 432.562 407.947 426.555 407.877C420.116 407.881 414.311 411.544 406.869 412.164C397.665 412.868 395.736 420.959 383.56 412.201C380.272 409.887 376.719 411.166 373.249 402.676C370.546 396.049 367.743 396.534 365.827 389.327C363.324 380.007 366.375 373.272 353.93 361.678C339.133 348.052 332.396 311.752 366.701 309.817C367.817 309.846 368.932 309.874 370.085 310.119C382.361 311.767 390.819 318.286 413.258 328.598C421.624 332.029 429.813 335.713 434.381 341.575Z" stroke="white" stroke-width="0.5"/>
<path d="M449.241 336.347C458.474 346.058 438.058 360.225 443.816 378.072C444.695 380.581 445.396 383.342 446.096 386.102C448.347 395.246 456.13 402.99 456.088 407.874C455.864 418.11 449.938 419.798 442.14 420.923C434.088 421.871 425.153 425.41 415.36 423.998C400.741 421.646 401.275 432.416 383.477 421.968C378.784 419.233 373.671 424.328 369.024 411.608C365.255 401.397 360.499 405.987 358.099 395.983C354.783 383.255 362.98 376.741 343.03 361.566C319.464 343.469 324.379 294.96 362.656 295.442C364.203 295.396 365.608 295.819 367.013 296.24C380.994 300.033 384.903 309.776 420.563 323.345C430.945 326.872 442.724 329.493 449.241 336.347Z" stroke="white" stroke-width="0.5"/>
<path d="M464.317 331.083C475.208 341.394 455.277 358.358 458.033 379.385C458.34 382.436 458.899 385.664 459.459 388.893C460.856 399.514 469.865 407.933 471.735 413.595C476.241 426.782 467.099 431.686 457.472 433.793C447.844 435.899 435.957 439.061 423.561 435.439C403.668 429.564 406.309 443.518 382.85 431.166C376.751 428.007 370.117 437.133 364.255 419.969C359.422 406.173 352.966 415.047 349.828 402.067C345.915 385.896 359.041 379.638 331.765 360.63C299.215 338.1 316.034 277.56 358.245 280.243C360.044 280.376 361.703 280.976 363.577 281.539C379.224 287.26 378.66 300.658 427.467 317.054C440.481 321.678 455.814 323.02 464.317 331.083Z" stroke="white" stroke-width="0.5"/>
<path d="M479.176 325.856C491.726 336.767 470.555 356.828 472.287 380.913C472.453 384.431 472.656 388.165 472.859 391.898C473.439 404.211 484.969 413.082 487.635 419.494C494.069 436.116 484.259 443.574 473.056 446.839C461.853 450.105 447.014 452.89 432.051 447.272C407.1 437.838 411.847 454.975 382.729 440.718C375.441 437.1 367.285 450.258 359.993 428.685C354.131 411.521 345.685 424.285 341.884 408.759C337.158 389.182 355.682 383.321 320.865 360.518C279.546 333.518 308.053 260.982 354.161 265.653C356.429 265.926 358.341 266.704 360.289 267.698C377.64 275.563 372.602 292.615 434.557 311.839C449.802 316.521 468.724 316.799 479.176 325.856Z" stroke="white" stroke-width="0.5"/>
<path d="M494.036 320.629C508.498 332.318 486.48 355.185 486.504 382.226C486.53 386.212 486.338 390.235 486.4 394.436C486.127 408.227 500.393 417.511 503.461 424.962C511.785 444.805 501.598 455.21 488.604 459.672C475.825 464.096 458.213 466.251 440.468 458.676C410.243 445.72 417.096 466.038 382.356 450.093C373.662 446.053 363.984 463.243 355.262 437.262C348.334 416.512 338.151 433.345 333.649 415.059C328.111 392.075 351.781 386.434 309.459 360.05C259.156 328.616 299.426 244.517 349.61 250.922C352.094 251.158 354.51 252.292 356.712 253.464C375.946 263.22 366.255 284.18 441.357 306.231C459.16 311.579 481.636 310.579 494.036 320.629Z" stroke="white" stroke-width="0.5"/>
<path d="M509.112 315.364C525.231 327.654 502.621 353.506 500.937 383.501C500.605 387.991 500.273 392.482 499.978 397.189C499.065 412.42 516.893 421.754 519.323 430.645C526.022 455.202 518.757 467.098 504.151 472.502C489.759 477.87 469.232 479.864 448.92 470.294C413.638 453.778 422.381 477.317 382.198 459.431C372.099 454.969 360.862 475.974 350.962 445.762C343.185 421.392 330.87 442.583 325.845 421.283C319.711 394.855 348.348 389.686 298.7 359.47C239.628 323.566 291.408 227.724 345.705 236.079C348.657 236.456 351.111 237.805 353.781 239.117C374.681 250.802 360.339 275.669 449.018 300.474C468.696 306.385 494.547 304.358 509.112 315.364Z" stroke="white" stroke-width="0.5"/>
<path d="M523.971 310.137C541.749 323.027 518.762 351.826 514.975 385.066C514.502 390.025 513.814 395.02 513.163 400.231C511.396 416.941 531.96 426.689 535.007 436.581C543.634 464.574 535.918 478.986 519.557 485.802C503.59 492.329 480.326 493.909 457.233 482.381C416.892 462.305 427.779 489.242 381.936 469.451C370.431 464.567 357.672 489.603 346.558 454.947C337.716 426.992 323.664 452.252 317.976 428.406C311.029 398.572 345.027 393.586 287.837 359.573C219.78 319.236 283.539 211.793 341.697 221.919C344.901 222.474 347.824 223.964 350.531 225.492C373.314 239.068 354.141 268.094 456.109 295.259C478.016 301.228 507.458 298.138 523.971 310.137Z" stroke="white" stroke-width="0.5"/>
<path d="M539.084 305.088C558.557 318.793 534.94 350.361 529.445 386.557C528.615 392.021 527.786 397.484 526.779 403.199C524.158 421.387 547.243 431.586 550.907 442.48C561.462 473.908 553.115 491.089 535.141 498.849C517.384 506.571 491.346 507.522 465.686 493.999C420.288 470.364 433.065 500.521 381.563 478.826C368.615 473.305 354.372 502.587 342.043 463.485C332.135 431.946 316.168 461.527 309.958 434.668C302.235 401.642 341.341 396.661 276.647 359.068C199.606 314.297 275.091 195.075 337.36 207.151C340.818 207.884 344.209 209.515 347.206 211.435C371.871 226.904 348.084 260.052 463.161 289.829C487.337 296.071 520.369 291.917 539.084 305.088Z" stroke="white" stroke-width="0.5"/>
<path d="M553.943 299.861C575.076 314.167 550.865 348.718 543.662 387.869C542.691 393.8 541.29 399.806 540.319 405.737C536.844 425.401 562.628 435.8 566.948 447.911C579.215 482.812 570.631 502.472 550.688 511.68C531.355 520.562 502.581 521.099 473.924 505.655C423.467 478.46 438.313 511.585 381.227 488.416C366.872 482.472 351.07 515.572 337.565 472.24C326.591 437.115 308.886 470.764 301.976 441.145C293.441 404.714 337.729 400.166 265.709 358.74C179.9 309.499 266.931 178.75 333.239 192.345C337.165 193.218 340.557 194.85 344.06 197.127C370.391 214.524 341.989 251.795 470.392 284.146C496.91 291.093 533.28 285.697 553.943 299.861Z" stroke="white" stroke-width="0.5"/>
<path d="M569.019 294.597C591.847 309.718 567.044 347.254 557.916 389.397C556.552 395.618 555.046 402.307 553.719 408.743C549.427 430.1 577.695 440.735 582.632 453.847C596.827 492.184 587.614 514.612 566.058 524.765C545.111 534.59 513.601 534.713 482.2 517.526C426.685 486.771 443.421 523.117 380.675 498.044C364.916 491.677 347.592 528.808 332.656 481.068C320.617 442.359 300.958 480.115 293.564 447.697C284.431 407.821 333.865 403.494 254.125 358.524C159.331 304.85 258.126 162.537 328.51 177.867C332.652 178.703 336.549 180.691 340.09 183.182C368.302 202.471 335.07 243.901 476.799 278.828C506.232 285.936 546.192 279.477 569.019 294.597Z" stroke="white" stroke-width="0.5"/>
<path d="M583.879 289.371C608.366 305.092 582.97 345.611 572.133 390.71C570.413 397.435 568.729 404.377 567.083 411.533C561.936 434.368 592.941 445.416 598.281 459.568C614.403 501.34 604.737 526.285 581.39 537.633C558.868 548.618 524.406 548.364 490.401 528.967C429.828 494.652 448.454 534.218 380.302 507.418C363.137 500.63 344.292 541.792 328.141 489.607C315.037 447.313 293.678 489.353 285.582 454.175C275.638 410.893 330.254 406.999 243.151 357.982C139.589 299.837 249.93 145.997 324.389 163.061C328.999 164.038 333.15 166.203 336.981 169.088C367.076 190.269 329.013 235.859 484.03 273.146C515.768 280.742 558.888 273.294 583.879 289.371Z" stroke="white" stroke-width="0.5"/>
<path d="M598.955 284.106C625.137 300.642 599.11 343.931 586.566 391.985C584.704 399.179 582.664 406.625 580.876 414.249C574.876 438.562 608.401 450.061 614.574 465.177C632.624 510.384 622.328 538.099 597.406 550.606C573.308 562.748 536.109 562.081 499.322 540.727C433.691 502.852 454.423 545.6 380.396 516.934C361.826 509.724 341.459 554.917 324.094 498.285C309.924 452.408 286.613 498.553 278.032 460.577C267.274 413.889 327.036 410.215 232.644 357.58C120.097 295.002 242.203 129.598 320.737 148.397C325.6 149.552 330.003 151.895 334.302 154.921C366.28 177.993 323.602 227.705 491.729 267.604C525.126 275.8 571.799 267.073 598.955 284.106Z" stroke="white" stroke-width="0.5"/>
<path d="M613.814 278.879C641.692 296.231 615.213 342.037 600.82 393.513C598.601 401.212 596.421 409.126 594.277 417.254C587.422 443.044 623.646 454.743 630.258 471.113C650.236 519.755 639.273 550.024 612.774 563.69C586.886 577.029 547.129 575.694 507.597 552.597C436.908 511.163 459.569 557.347 380.098 526.739C360.123 519.106 338.195 568.116 319.653 507.254C304.633 457.755 279.369 508.006 270.088 467.269C258.734 417.138 323.64 413.684 221.529 357.504C100.213 290.456 233.865 113.526 316.475 134.059C321.592 135.392 326.463 137.876 330.8 141.116C364.66 166.08 317.152 219.952 498.604 262.426C534.446 270.643 584.71 260.853 613.814 278.879Z" stroke="white" stroke-width="0.5"/>
<path d="M628.89 273.615C658.426 291.567 631.354 340.357 615.037 394.826C612.678 402.992 610.14 411.411 607.603 419.829C599.894 447.097 638.639 459.246 646.084 476.582C667.99 528.659 656.611 561.66 628.322 576.522C600.82 590.804 558.364 589.272 516.014 564.001C440.267 519.006 465.033 568.374 379.687 535.899C358.521 527.807 334.858 580.885 315.1 515.578C299.015 462.495 271.835 517.066 262.069 473.532C249.903 419.993 319.992 416.974 210.554 356.963C80.2541 285.48 225.454 97.0232 312.355 119.253C317.939 120.727 323.064 123.389 327.654 126.808C363.396 153.663 311.057 211.695 506.05 256.706C543.982 265.449 597.658 254.847 628.89 273.615Z" stroke="white" stroke-width="0.5"/>
<path d="M643.749 268.388C675.197 287.118 647.279 338.714 629.291 396.353C626.575 405.025 623.681 413.949 621.002 422.835C612.439 451.58 653.92 464.144 661.768 482.517C685.564 537.816 673.593 573.8 643.475 589.643C614.398 605.085 568.99 603.175 524.073 575.909C443.268 527.355 469.925 579.942 379.172 545.742C356.601 537.227 331.415 594.336 310.228 524.622C293.078 467.953 264.16 526.594 253.693 480.299C240.714 423.354 315.949 420.555 198.97 356.747C59.6849 280.831 216.648 80.8108 307.587 104.56C313.425 106.211 318.802 109.051 323.898 112.826C361.306 141.611 304.391 203.979 512.634 251.135C553.34 260.508 610.569 248.627 643.749 268.388Z" stroke="white" stroke-width="0.5"/>
<path d="M658.862 263.339C691.968 282.669 663.457 337.249 643.76 397.845C640.688 407.021 637.653 416.411 634.833 425.766C625.416 455.989 669.381 468.788 678.099 488.342C703.823 547.076 691.4 585.576 659.528 602.831C628.838 619.216 580.694 616.892 533.032 587.883C447.347 535.517 475.716 591.578 379.304 555.473C355.328 546.535 328.583 607.461 306.218 533.516C288.002 473.264 257.17 536.226 246.18 486.916C232.388 426.565 312.984 423.948 188.501 356.56C40.4473 276.174 208.957 64.6264 303.972 90.1103C310.241 91.6869 315.909 94.9198 321.041 98.9101C360.332 129.586 298.586 196.115 520.155 245.846C562.661 255.351 623.48 242.407 658.862 263.339Z" stroke="white" stroke-width="0.5"/>
<path d="M673.722 258.112C708.524 278.258 679.383 335.608 657.978 399.157C654.764 408.801 651.372 418.697 648.196 428.557C637.962 460.472 684.626 473.47 693.746 494.063C721.398 556.232 708.307 597.286 674.86 615.7C642.379 633.281 591.714 630.505 541.017 599.361C450.274 543.435 480.749 602.679 378.678 564.67C353.259 555.095 325.245 620.23 301.45 541.877C282.169 478.04 249.599 545.07 237.946 493.217C223.558 429.421 309.12 427.276 177.311 356.055C20.2731 271.235 200.546 48.1241 299.637 75.3419C306.158 77.097 312.256 80.2554 317.679 84.6389C358.853 117.206 292.493 187.857 527.171 240.2C572.198 250.157 636.176 236.223 673.722 258.112Z" stroke="white" stroke-width="0.5"/>
<path d="M688.797 252.847C725.295 273.809 695.523 333.928 672.232 400.685C668.662 410.833 665.092 420.983 661.559 431.346C650.471 464.74 699.656 478.189 709.393 499.783C738.973 565.388 725.467 609.174 690.192 628.568C656.135 647.309 602.697 643.904 549.255 611.017C453.454 551.532 485.819 613.994 378.127 574.297C351.302 564.301 321.766 633.467 296.756 550.669C276.41 483.247 241.887 554.383 229.534 499.767C214.333 432.566 305.041 430.64 165.727 355.839C-0.079789 266.549 191.741 31.9109 294.906 60.8635C301.681 62.7969 308.032 66.1329 313.961 70.8722C357.017 105.332 285.863 180.357 533.83 235.06C581.555 245.215 649.087 230.003 688.797 252.847Z" stroke="white" stroke-width="0.5"/>
<path d="M703.657 247.62C741.813 269.182 711.449 332.285 686.449 401.997C682.737 412.614 678.811 423.268 675.137 434.099C663.195 468.97 715.116 482.834 725.472 505.429C756.98 574.469 742.843 621.025 705.992 641.578C670.36 661.477 613.969 657.696 557.924 622.598C457.065 559.553 491.32 625.237 378.184 583.598C349.954 573.178 318.896 646.376 292.672 559.133C271.26 488.126 235.037 563.547 221.946 505.955C205.932 435.347 302.039 433.819 155.146 355.006C-19.645 261.283 183.722 15.1185 291.179 45.7679C298.422 47.8417 305.027 51.3569 310.993 56.311C355.931 92.6617 279.947 171.847 541.202 228.91C591.092 240.021 662.035 223.997 703.657 247.62Z" stroke="white" stroke-width="0.5"/>
<path d="M718.732 242.356C758.584 264.734 727.804 330.568 700.882 403.273C696.813 414.394 692.53 425.553 688.715 436.853C675.919 473.201 730.323 487.3 741.335 511.113C774.77 583.589 759.966 632.697 721.539 654.41C684.294 675.253 625.204 671.272 566.377 634.218C460.459 567.611 496.822 636.478 377.848 593.187C348.211 582.346 315.595 659.36 287.94 567.709C265.463 493.118 227.288 572.644 213.748 512.47C197.138 438.418 298.175 437.147 143.993 354.716C-39.5672 256.523 175.348 -1.16904 286.843 30.9995C294.339 33.2516 301.412 36.9072 307.631 42.0398C354.451 80.2817 273.636 163.627 548.217 223.264C600.412 234.864 674.947 217.777 718.732 242.356Z" stroke="white" stroke-width="0.5"/>
<path d="M733.592 237.13C775.139 260.322 743.514 328.963 715.135 404.801C710.711 416.427 706.286 428.053 702.115 439.858C688.464 477.684 745.605 492.198 757.234 517.011C792.56 592.708 777.379 644.764 737.161 667.672C698.34 689.673 636.476 685.063 574.905 646.266C463.929 576.101 502.183 648.188 377.764 602.956C346.723 591.692 312.585 672.737 283.716 576.64C260.388 498.428 220.259 582.059 206.02 519.125C188.634 441.882 294.779 440.615 133.093 354.604C-59.4518 251.977 167.226 -17.2783 282.797 16.625C290.761 19.0175 297.871 22.8878 304.559 28.1614C353.261 68.2954 267.653 156.015 555.738 217.975C609.769 229.923 687.642 211.594 733.592 237.13Z" stroke="white" stroke-width="0.5"/>
<path d="M748.669 231.865C791.874 255.658 759.871 327.246 729.353 406.114C724.788 418.208 720.006 430.339 715.441 442.433C700.937 481.737 760.598 496.701 772.844 522.517C810.096 601.649 794.249 656.259 752.241 680.362C711.844 703.523 647.244 698.5 582.853 657.529C466.998 583.551 507.178 659.074 376.922 612.19C344.475 600.504 308.816 685.581 278.732 585.039C254.34 503.241 212.295 591.194 197.533 525.246C179.335 444.596 290.662 443.765 121.651 353.921C-79.8786 246.86 158.562 -33.9589 278.208 1.6783C286.389 4.03444 294.004 8.26063 300.766 13.9646C351.351 55.9898 260.988 148.299 562.323 212.404C619.091 224.766 700.554 205.374 748.669 231.865Z" stroke="white" stroke-width="0.5"/>
<path d="M763.528 226.638C808.427 251.246 775.797 325.603 743.57 407.427C738.611 419.81 733.726 432.624 729.019 445.186C713.698 486.183 776.021 501.131 788.745 528.416C828.142 610.946 811.662 668.325 767.825 693.41C725.638 717.765 658.479 712.075 591.344 669.363C470.43 591.826 512.502 670.568 376.802 621.743C342.949 609.635 305.73 698.528 274.469 593.755C249.011 508.374 205.229 600.395 189.768 531.687C170.757 447.631 287.445 446.981 110.675 353.378C-99.622 241.847 150.15 -50.462 274.087 -13.1272C282.52 -10.5935 290.606 -6.22616 297.62 -0.344678C350.087 43.5725 254.893 140.042 569.516 206.507C628.664 219.787 713.502 199.368 763.528 226.638Z" stroke="white" stroke-width="0.5"/>
<path d="M778.64 221.589C825.237 247.013 791.973 324.138 758.076 409.132C752.976 421.984 747.735 435.303 742.672 448.369C726.496 490.843 791.341 506.243 804.897 534.493C846.222 620.458 829.115 680.606 783.7 706.85C739.899 732.153 669.826 726.295 599.909 681.627C473.974 600.745 517.899 682.493 376.577 631.979C341.32 619.448 302.579 712.371 270.102 603.154C243.58 514.189 197.882 610.531 181.935 539.025C162.327 451.525 283.981 451.348 99.8862 353.911C-119.395 237.947 142.177 -65.7103 270.153 -26.8558C279.054 -24.1818 287.139 -19.8152 294.66 -13.577C349.009 32.2313 248.985 132.86 576.934 201.9C637.985 214.63 726.413 193.147 778.64 221.589Z" stroke="white" stroke-width="0.5"/>
<path d="M820.503 539.999C905.296 715.33 756.075 788.322 608.109 693.068C477.117 608.626 523.184 693.772 376.167 641.139C339.718 628.149 299.241 725.145 265.335 611.515C237.746 518.965 190.311 619.376 173.663 545.109C153.243 454.203 280.043 454.245 88.6596 353.191C-155.27 224.416 174.096 -127.53 291.045 -28.0267C347.099 19.9264 242.6 124.209 583.697 196.077C647.305 209.473 739.108 186.965 793.499 216.362C849.116 246.434 795.684 348.104 756.035 451.16C738.968 494.896 806.333 510.748 820.503 539.999Z" stroke="white" stroke-width="0.5"/>
</g>
<defs>
<clipPath id="clip0_43_26">
<rect width="846" height="782" fill="white" transform="translate(0 -46)"/>
</clipPath>
</defs>
</svg>
