<svg width="38" height="38" viewBox="0 0 38 38" fill="none" xmlns="http://www.w3.org/2000/svg">
<path fill-rule="evenodd" clip-rule="evenodd" d="M37.0618 19.8041L37.0559 19.8096C37.0319 19.8295 37.0403 19.8219 37.0618 19.8041ZM12.6257 31.051L12.0769 30.2383C12.0684 30.2269 12.0608 30.2155 12.0532 30.2037L6.45343 21.8813C6.44414 21.8694 6.43528 21.8572 6.42683 21.8441C6.41839 21.831 6.41544 21.8264 6.41037 21.8175L5.87378 21.02C5.87378 21.02 5.87378 21.02 5.87125 21.02H5.86829L0 24.9695C0 24.9695 0 24.9695 0 24.972V24.9763L6.75149 35.0072C6.75149 35.0072 6.75149 35.0072 6.75445 35.0072H6.75867L12.627 31.0582C12.627 31.0582 12.627 31.0582 12.627 31.0556L12.6257 31.051ZM21.7942 6.44133C22.3079 6.44101 22.8055 6.26261 23.2025 5.93652C23.5994 5.61043 23.871 5.15681 23.971 4.65294C24.071 4.14908 23.9932 3.62613 23.7509 3.17317C23.5086 2.72022 23.1167 2.36528 22.6421 2.16882C22.1674 1.97236 21.6394 1.94653 21.1478 2.09573C20.6563 2.24493 20.2316 2.55993 19.9463 2.98707C19.6609 3.41421 19.5325 3.92708 19.5828 4.4383C19.6332 4.94952 19.8592 5.42747 20.2224 5.79075C20.4285 5.99754 20.6735 6.16149 20.9432 6.27315C21.213 6.38481 21.5022 6.44197 21.7942 6.44133ZM18.2555 13.9983C18.2555 13.8567 18.3117 13.7209 18.4119 13.6207C18.512 13.5205 18.6479 13.4643 18.7895 13.4643C18.9311 13.4643 19.067 13.5205 19.1671 13.6207C19.2673 13.7209 19.3236 13.8567 19.3236 13.9983V18.169L24.2631 19.3338V13.9992C24.2631 13.8575 24.3193 13.7217 24.4195 13.6215C24.5196 13.5214 24.6555 13.4651 24.7971 13.4651C24.9388 13.4651 25.0746 13.5214 25.1748 13.6215C25.2749 13.7217 25.3312 13.8575 25.3312 13.9992V19.604C25.3312 19.6156 25.3312 19.627 25.3312 19.6382C25.849 19.881 26.2732 20.2865 26.539 20.7929C26.577 20.8638 26.6121 20.9368 26.6437 21.0107L27.3247 20.673C27.3146 20.6315 27.3095 20.589 27.3095 20.5463V11.6384C27.3074 10.885 27.0074 10.1631 26.4749 9.63011C25.9424 9.09717 25.2208 8.79649 24.4674 8.79371H19.1209C18.3677 8.79649 17.6461 9.09696 17.1136 9.62961C16.581 10.1623 16.2806 10.8839 16.278 11.6371V17.4526L18.2555 17.917V13.9983ZM30.8089 9.15678C31.3227 9.15676 31.8206 8.97859 32.2177 8.65263C32.6149 8.32667 32.8867 7.87309 32.9869 7.36918C33.0871 6.86528 33.0094 6.34221 32.7672 5.88913C32.525 5.43604 32.1331 5.08097 31.6584 4.8844C31.1838 4.68784 30.6556 4.66196 30.164 4.81116C29.6723 4.96036 29.2476 5.27541 28.9623 5.70264C28.6769 6.12986 28.5485 6.64282 28.5989 7.15412C28.6493 7.66541 28.8755 8.14339 29.2389 8.50663C29.4448 8.71309 29.6896 8.87681 29.959 8.98838C30.2285 9.09996 30.5173 9.15719 30.8089 9.15678ZM28.3785 20.1444L33.2931 17.6899C33.2842 17.651 33.2798 17.6111 33.28 17.5712V16.1274C33.278 16.056 33.2903 15.985 33.3162 15.9184C33.3421 15.8519 33.3811 15.7913 33.4309 15.7401C33.4807 15.6889 33.5402 15.6482 33.606 15.6204C33.6717 15.5926 33.7424 15.5783 33.8138 15.5783C33.8852 15.5783 33.9559 15.5926 34.0216 15.6204C34.0874 15.6482 34.1469 15.6889 34.1967 15.7401C34.2465 15.7913 34.2855 15.8519 34.3114 15.9184C34.3373 15.985 34.3497 16.056 34.3477 16.1274V17.163L34.9957 16.8392C35.4174 16.6212 35.8638 16.4545 36.3251 16.3427V14.3534C36.3226 13.6002 36.0222 12.8785 35.4896 12.3459C34.957 11.8133 34.2354 11.513 33.4822 11.5104H28.3764C28.3764 11.5526 28.3764 11.5949 28.3764 11.6371L28.3785 20.1444ZM12.7393 9.15678C13.253 9.15676 13.7509 8.97859 14.148 8.65263C14.5452 8.32667 14.817 7.87309 14.9172 7.36918C15.0174 6.86528 14.9397 6.34221 14.6975 5.88913C14.4553 5.43604 14.0634 5.08097 13.5888 4.8844C13.1141 4.68784 12.5859 4.66196 12.0943 4.81116C11.6026 4.96036 11.178 5.27541 10.8926 5.70264C10.6072 6.12986 10.4788 6.64282 10.5292 7.15412C10.5797 7.66541 10.8058 8.14339 11.1692 8.50663C11.3751 8.71309 11.6199 8.87681 11.8893 8.98838C12.1588 9.09996 12.4476 9.15719 12.7393 9.15678ZM9.20013 16.1274C9.20013 15.9857 9.2564 15.8499 9.35655 15.7497C9.45671 15.6496 9.59254 15.5933 9.73419 15.5933C9.87583 15.5933 10.0117 15.6496 10.1118 15.7497C10.212 15.8499 10.2682 15.9857 10.2682 16.1274V18.6892L12.7633 17.0545C12.9159 16.9531 13.088 16.8845 13.2685 16.853C13.449 16.8215 13.6341 16.8279 13.812 16.8717L15.2098 17.201V11.6379C15.2098 11.5957 15.2099 11.5535 15.2124 11.5113H10.066C9.31281 11.5138 8.59118 11.8142 8.05857 12.3468C7.52597 12.8794 7.22562 13.601 7.22306 14.3542V20.5788C7.22309 20.6172 7.21899 20.6554 7.21082 20.6928L9.20013 19.3904V16.1274ZM37.8484 17.7701C37.79 17.6473 37.7009 17.5417 37.5896 17.4636C37.4504 17.3755 37.2898 17.327 37.1252 17.3234C36.5438 17.3408 35.9759 17.5027 35.4728 17.7946L26.8759 22.0881C26.8802 22.3211 26.8554 22.5537 26.802 22.7805C26.7919 22.8227 26.7784 22.8747 26.7598 22.9316C26.6589 23.2756 26.4906 23.596 26.2647 23.8744C26.0389 24.1528 25.76 24.3835 25.4443 24.5532C24.7982 24.9013 24.0451 24.9948 23.3334 24.8154L18.4914 23.6122C18.357 23.5761 18.242 23.4887 18.1711 23.3689C18.1002 23.2491 18.079 23.1062 18.1121 22.971C18.1453 22.8357 18.23 22.7188 18.3482 22.6452C18.4665 22.5717 18.6088 22.5474 18.7448 22.5774L23.5893 23.7811C24.0429 23.8974 24.5236 23.8397 24.9369 23.6194C25.1293 23.516 25.2993 23.3755 25.437 23.2059C25.5747 23.0363 25.6774 22.8411 25.739 22.6315C25.7458 22.6074 25.7538 22.5766 25.7626 22.539C25.8131 22.3249 25.8232 22.1033 25.7926 21.8855C25.7884 21.8654 25.7851 21.8451 25.7829 21.8247C25.7508 21.6393 25.6894 21.4601 25.6009 21.294C25.5074 21.1132 25.3788 20.9529 25.2226 20.8224C25.0664 20.692 24.8857 20.5939 24.6912 20.5341C24.6717 20.5286 24.6456 20.5218 24.6122 20.5138L13.5701 17.9102C13.5308 17.9003 13.4899 17.8982 13.4498 17.9039C13.4133 17.9111 13.3785 17.9254 13.3476 17.9461L10.0479 20.1081C10.0344 20.1178 10.0204 20.1271 10.0056 20.1356L7.61696 21.701L12.6831 29.2246C13.2235 28.9312 13.6368 28.6881 13.9754 28.4892C14.7775 28.0181 15.2069 27.7664 15.7574 27.7268C16.3725 27.6845 16.9496 27.9226 18.1871 28.4377C18.5514 28.5897 18.9748 28.7657 19.4186 28.9443L19.8969 29.1368C22.1767 30.0597 23.2106 30.4789 24.83 29.6586C26.3005 28.9139 28.3177 27.2007 32.0138 24.0614C33.4286 22.8603 35.0848 21.4536 37.0074 19.8485L37.1822 19.7024C37.5457 19.3989 37.9733 19.0126 37.9949 18.6047C38.0171 18.3186 37.9667 18.0315 37.8484 17.7701Z" fill="white"/>
</svg>
