<svg width="22" height="22" viewBox="0 0 22 22" fill="none" xmlns="http://www.w3.org/2000/svg">
<path d="M10.8145 0.00183211C16.9207 -0.108594 21.9364 4.78696 22.0054 10.8282C22.0745 16.9614 17.2106 21.9444 11.132 21.9996C5.06253 22.0502 0.0744482 17.1777 0.000823433 11.1733C-0.0728014 5.06763 4.80024 0.103056 10.8145 0.00183211ZM11.0077 17.3525C11.0077 17.3249 11.0077 17.3019 11.0077 17.2743C11.9096 17.2743 12.8161 17.2881 13.718 17.2697C14.3577 17.2559 14.9789 17.1179 15.5449 16.8004C16.709 16.1378 17.2336 15.0796 17.2658 13.7959C17.3119 11.937 17.298 10.0782 17.2704 8.21937C17.2566 7.32676 16.9759 6.50776 16.3501 5.8314C15.6507 5.08143 14.7626 4.75935 13.7779 4.74555C11.9326 4.71334 10.0874 4.71334 8.2422 4.74555C7.29888 4.75935 6.43839 5.06302 5.74816 5.75319C5.04412 6.45715 4.76803 7.33596 4.74042 8.29298C4.70361 9.56288 4.6944 10.8328 4.699 12.1027C4.699 12.7836 4.71741 13.4646 4.78183 14.141C4.95209 15.8618 6.14849 17.0718 7.86487 17.2237C8.90942 17.3157 9.95858 17.3111 11.0077 17.3525Z" fill="#1E433D"/>
<path d="M11.007 5.80273C11.9549 5.83034 12.9028 5.84414 13.8508 5.88555C14.3523 5.90856 14.8309 6.04659 15.2404 6.35946C15.8202 6.79657 16.1009 7.41311 16.1101 8.10787C16.1377 10.0357 16.1607 11.9636 16.1055 13.8868C16.0687 15.1981 15.1852 16.0493 13.8692 16.1045C12.4105 16.1644 10.9472 16.1552 9.48389 16.1598C8.95932 16.1598 8.42554 16.1506 7.90556 16.0723C6.68155 15.8929 5.9269 15.1153 5.89469 13.8822C5.84407 11.9544 5.83947 10.0265 5.89469 8.10327C5.9315 6.79197 6.815 5.97758 8.13104 5.87635C8.3197 5.86255 8.51297 5.83954 8.70163 5.83954C9.46549 5.83494 10.2339 5.83954 10.9978 5.83954C11.007 5.83034 11.007 5.81654 11.007 5.80273ZM11.0162 14.2411C12.8108 14.2365 14.2511 12.7872 14.2511 10.9927C14.2465 9.19833 12.797 7.75819 11.0024 7.76279C9.2078 7.76739 7.76292 9.21673 7.76752 11.0112C7.76752 12.801 9.22161 14.2457 11.0162 14.2411ZM14.3891 6.87479C13.9658 6.87018 13.6253 7.20146 13.6207 7.62016C13.6161 8.03886 13.9566 8.38394 14.3753 8.38394C14.7849 8.38394 15.1208 8.05726 15.13 7.64317C15.1392 7.21527 14.8171 6.87939 14.3891 6.87479Z" fill="#1E433D"/>
<path d="M11.0259 8.89943C12.1901 8.90403 13.115 9.84725 13.1104 11.0159C13.1058 12.18 12.1625 13.1048 10.9937 13.1002C9.82951 13.0956 8.9046 12.1524 8.9092 10.9837C8.9138 9.81964 9.85251 8.89483 11.0259 8.89943Z" fill="#1E433D"/>
</svg>
