<svg width="22" height="22" viewBox="0 0 22 22" fill="none" xmlns="http://www.w3.org/2000/svg">
<path d="M10.8227 0.00183718C16.9146 -0.108589 21.9298 4.77317 22.0034 10.8144C22.077 16.9707 17.209 21.9491 11.1034 21.9997C5.06214 22.0457 0.0791465 17.1639 0.000927868 11.1871C-0.0772908 5.07225 4.79987 0.0984602 10.8227 0.00183718ZM9.30895 8.58288C9.30895 11.2699 9.30895 13.9432 9.30895 16.6164C10.2016 16.6164 11.0804 16.6164 11.973 16.6164C11.973 16.2023 11.973 15.8066 11.973 15.4109C11.9776 14.233 11.973 13.0551 11.9914 11.8773C11.996 11.3895 12.2537 11.0169 12.6401 10.7454C13.4131 10.1979 14.4208 10.5429 14.6784 11.4494C14.7566 11.7162 14.7889 12.0061 14.7935 12.2868C14.8027 13.6487 14.7981 15.0106 14.7981 16.3725C14.7981 16.4554 14.7981 16.5336 14.7981 16.621C15.7045 16.621 16.5787 16.621 17.4621 16.621C17.4667 16.5704 17.4713 16.5336 17.4713 16.4968C17.4713 14.9186 17.4851 13.345 17.4575 11.7668C17.4483 11.3205 17.3701 10.865 17.2412 10.4371C16.9008 9.30985 16.1416 8.61049 14.9683 8.43104C13.7904 8.2516 12.7782 8.54147 12.0696 9.57212C12.0558 9.59512 12.0282 9.60893 11.9638 9.66874C11.9638 9.27765 11.9638 8.92796 11.9638 8.58748C11.0574 8.58288 10.1878 8.58288 9.30895 8.58288ZM5.14956 8.58288C5.14956 11.2699 5.14956 13.9432 5.14956 16.6118C6.04217 16.6118 6.92098 16.6118 7.79979 16.6118C7.79979 13.9294 7.79979 11.2607 7.79979 8.58288C6.91178 8.58288 6.03297 8.58288 5.14956 8.58288ZM6.45627 7.47402C7.30747 7.48322 7.91942 6.9633 7.98383 6.17651C8.04825 5.43573 7.53293 4.82379 6.74154 4.70416C5.93174 4.57993 5.19097 5.01703 5.01612 5.721C4.78607 6.65502 5.44863 7.46481 6.45627 7.47402Z" fill="#1E433D"/>
</svg>
