<svg width="40" height="38" viewBox="0 0 40 38" fill="none" xmlns="http://www.w3.org/2000/svg">
<path d="M11.3382 3.17034C10.6495 3.62289 10.076 4.23179 9.66389 4.94786C9.25182 5.66392 9.0125 6.4673 8.96533 7.29337V11.9888C9.0125 12.8148 9.25182 13.6182 9.66389 14.3343C10.076 15.0504 10.6495 15.6592 11.3382 16.1118L16.2478 19.0221C17.5499 19.7788 18.6205 19.158 18.6205 17.6446V1.73454C18.6205 0.221163 17.5499 -0.399664 16.2478 0.357026L11.3382 3.17034Z" fill="white"/>
<path d="M10.8269 17.1292C10.1141 16.7721 9.32642 16.5861 8.52759 16.5861C7.72876 16.5861 6.94111 16.7721 6.22828 17.1292L2.304 19.3557C1.63531 19.7885 1.07848 20.3707 0.678277 21.0554C0.278139 21.7403 0.0457931 22.5085 0 23.2984V28.7533C0 30.2005 1.03966 30.7943 2.304 30.0707L15.6035 22.4635C16.8679 21.7399 16.8679 20.5617 15.6035 19.8381L10.8269 17.1292Z" fill="white"/>
<path d="M28.6613 3.17034C29.35 3.62289 29.9235 4.23179 30.3355 4.94786C30.7477 5.66392 30.987 6.4673 31.0341 7.29337V11.9888C30.987 12.8148 30.7477 13.6182 30.3355 14.3343C29.9235 15.0504 29.35 15.6592 28.6613 16.1118L23.7421 19.0221C22.4399 19.7788 21.3789 19.158 21.3789 17.6446V1.73454C21.3789 0.221163 22.4399 -0.399664 23.7421 0.357026L28.6613 3.17034Z" fill="white"/>
<path d="M28.7256 17.1292C29.4686 16.7721 30.2895 16.5861 31.122 16.5861C31.9546 16.5861 32.7755 16.7721 33.5185 17.1292L37.6086 19.3557C38.3043 19.789 38.8832 20.3715 39.2986 21.0563C39.714 21.7412 39.9543 22.5092 40.0002 23.2984V28.7533C40.0002 30.2005 38.9264 30.7943 37.6086 30.0707L23.7472 22.4635C22.4293 21.7399 22.4293 20.5617 23.7472 19.8381L28.7256 17.1292Z" fill="white"/>
<path d="M8.48693 37.4231C9.20017 37.7797 9.98824 37.9655 10.7875 37.9655C11.5868 37.9655 12.3749 37.7797 13.0881 37.4231L17.0147 35.1903C17.6827 34.7556 18.2384 34.1722 18.6371 33.4868C19.0358 32.8013 19.2665 32.0331 19.3105 31.2436V25.796C19.3105 24.3507 18.2798 23.7578 17.0147 24.4804L3.70762 32.0774C2.44251 32.8 2.44251 33.9766 3.70762 34.6993L8.48693 37.4231Z" fill="white"/>
<path d="M20 31.2481C20.0467 32.0356 20.2873 32.8018 20.7026 33.4851C21.118 34.1685 21.6964 34.7499 22.3916 35.1829L26.4817 37.4234C27.2247 37.7798 28.0456 37.9655 28.8782 37.9655C29.7108 37.9655 30.5317 37.7798 31.2746 37.4234L36.253 34.6922C37.5708 33.9701 37.5708 32.7942 36.253 32.0721L22.3916 24.4802C21.0738 23.7581 20 24.3506 20 25.7949V31.2481Z" fill="white"/>
</svg>
