<svg width="41" height="40" viewBox="0 0 41 40" fill="none" xmlns="http://www.w3.org/2000/svg">
<g clip-path="url(#clip0_33_70)">
<path d="M26.0555 28.8893C26.0555 29.184 25.9384 29.4666 25.7301 29.675C25.5217 29.8834 25.2391 30.0004 24.9444 30.0004H9.38883C9.14439 30.0004 8.91106 30.2227 8.71106 30.3671L4.94439 33.3338V15.556C4.94439 15.2613 5.06145 14.9787 5.26983 14.7703C5.4782 14.5619 5.76082 14.4449 6.0555 14.4449H10.3444V12.2227H6.0555C5.17145 12.2227 4.3236 12.5738 3.69848 13.199C3.07336 13.8241 2.72217 14.6719 2.72217 15.556V35.556C2.72382 35.7623 2.78291 35.9642 2.89281 36.1388C3.00271 36.3135 3.15908 36.4541 3.34439 36.5449C3.52292 36.6261 3.71976 36.6586 3.91492 36.639C4.11007 36.6195 4.29658 36.5487 4.4555 36.4338L10.1777 32.2227H25.1111C25.5322 32.2351 25.9514 32.161 26.3427 32.0048C26.734 31.8487 27.0891 31.6139 27.3859 31.3149C27.6828 31.016 27.9151 30.6593 28.0685 30.2669C28.2219 29.8745 28.2931 29.4548 28.2777 29.0338V27.7782H26.0555V28.8893Z" fill="#1E433D"/>
<path d="M34.9444 4.44434H16.0555C15.1714 4.44434 14.3236 4.79553 13.6985 5.42065C13.0734 6.04577 12.7222 6.89361 12.7222 7.77767V21.111C12.7222 21.9951 13.0734 22.8429 13.6985 23.468C14.3236 24.0931 15.1714 24.4443 16.0555 24.4443H31.1111L36.4222 28.5666C36.5801 28.6833 36.7661 28.7561 36.9612 28.7776C37.1564 28.799 37.3538 28.7684 37.5333 28.6888C37.7224 28.5987 37.8821 28.4571 37.9942 28.2801C38.1063 28.1032 38.166 27.8982 38.1666 27.6888V7.77767C38.1671 6.91253 37.8312 6.0811 37.2299 5.45908C36.6286 4.83705 35.809 4.47317 34.9444 4.44434ZM36.0555 25.4888L32.1666 22.4554C31.9727 22.3049 31.7343 22.2229 31.4888 22.2221H16.0555C15.7608 22.2221 15.4782 22.1051 15.2698 21.8967C15.0615 21.6883 14.9444 21.4057 14.9444 21.111V7.77767C14.9444 7.48298 15.0615 7.20037 15.2698 6.992C15.4782 6.78362 15.7608 6.66656 16.0555 6.66656H34.9444C35.2414 6.69351 35.5183 6.82813 35.723 7.04506C35.9276 7.26199 36.0459 7.54626 36.0555 7.84434V25.4888Z" fill="#1E433D"/>
</g>
<defs>
<clipPath id="clip0_33_70">
<rect width="40" height="40" fill="white" transform="translate(0.5)"/>
</clipPath>
</defs>
</svg>
