<svg width="24" height="24" viewBox="0 0 24 24" fill="none" xmlns="http://www.w3.org/2000/svg">
<path d="M20.3038 14.7808C20.2234 14.7003 20.1429 14.6165 20.0613 14.536C19.8165 14.2858 19.563 14.0291 19.2759 13.7919C18.3599 13.0315 17.1677 13.0424 16.2377 13.8137C16.0984 13.9279 15.9809 14.0476 15.8678 14.1618L15.8265 14.2031C15.4001 14.6295 14.9747 15.0581 14.545 15.4867C14.5037 15.465 14.4645 15.4454 14.4221 15.4226C14.1273 15.2692 13.8456 15.1278 13.5899 14.9635C12.1921 14.0671 10.8911 12.8553 9.61825 11.2542C9.13092 10.6417 8.76107 10.0543 8.48476 9.46364L8.79913 9.15143C9.19728 8.75546 9.60957 8.34972 10.011 7.93417C11.0215 6.88662 11.0215 5.54209 10.011 4.50331C9.30062 3.77338 8.56853 3.04455 7.85818 2.34183L7.25335 1.74355C6.93898 1.42917 6.57673 1.2116 6.17859 1.09739C5.5803 0.924433 4.68611 0.897236 3.81152 1.74572C3.59939 1.94914 3.3938 2.16018 3.18819 2.36904C2.87925 2.68342 2.58662 2.98147 2.27771 3.26321C1.40094 4.05949 0.96036 5.05918 1.0028 6.15689C1.0028 7.10982 1.15292 7.97026 1.48471 8.95031C2.25596 11.226 3.47322 13.3559 5.21048 15.4642C7.65807 18.4362 10.6266 20.6801 14.0358 22.1369C15.2748 22.6655 16.4442 22.944 17.6081 22.9886C17.6777 22.9886 17.7441 22.9919 17.8115 22.9919C18.8863 22.9919 19.7805 22.6525 20.4712 21.9835C21.0499 21.4211 21.621 20.8358 22.1758 20.268L22.2618 20.1788C22.6708 19.7611 22.9133 19.2792 22.9797 18.7527C23.0776 17.9977 22.8209 17.3048 22.2171 16.6978C21.5819 16.0571 20.9444 15.4229 20.3037 14.7876L20.3038 14.7808ZM21.5983 18.5675C21.5701 18.7905 21.4591 18.9961 21.2644 19.1995L21.1752 19.2887C20.6291 19.8489 20.0645 20.4277 19.4989 20.9759C19.0365 21.4241 18.4546 21.6221 17.6605 21.5884C16.6695 21.5492 15.6611 21.3066 14.5808 20.8443C11.3816 19.4802 8.58789 17.3666 6.28514 14.5676C4.65559 12.5933 3.51993 10.6049 2.80415 8.49428C2.52241 7.6621 2.39512 6.93218 2.39512 6.13264V6.10436C2.36466 5.41905 2.64314 4.80659 3.21424 4.28555C3.55365 3.97878 3.87454 3.65355 4.18349 3.33917C4.38147 3.13901 4.57946 2.9356 4.78177 2.74089C5.06568 2.46567 5.30501 2.38736 5.5117 2.38736C5.61504 2.38736 5.70641 2.40694 5.79343 2.43196C5.96639 2.482 6.12195 2.57664 6.26988 2.72676L6.87471 3.32833C7.5796 4.02778 8.30844 4.75119 9.01118 5.47565C9.48983 5.96625 9.48763 6.46665 9.00574 6.96813C8.61849 7.36953 8.21163 7.76985 7.81894 8.16036L7.41537 8.56176C6.96176 9.01538 6.89974 9.33301 7.16191 9.92043C7.49043 10.658 7.93642 11.377 8.5293 12.12C9.89995 13.8409 11.3087 15.1548 12.8402 16.1362C13.1545 16.3364 13.4776 16.5039 13.7898 16.6627C13.9236 16.7323 14.0574 16.7987 14.1912 16.8716C14.4197 16.9945 14.8787 17.1305 15.3606 16.6431C15.8447 16.1558 16.3266 15.6717 16.8117 15.1865L16.8531 15.1452C16.9477 15.0506 17.0402 14.9581 17.1283 14.8863C17.4209 14.6437 17.8778 14.4436 18.3901 14.8667C18.6208 15.0593 18.8416 15.2812 19.0722 15.515C19.156 15.601 19.2419 15.688 19.3289 15.7718C19.9664 16.4038 20.6017 17.0358 21.2337 17.6732C21.6155 18.0572 21.6318 18.3553 21.6035 18.5696L21.5983 18.5675Z" fill="black"/>
</svg>
