<svg width="24" height="24" viewBox="0 0 24 24" fill="none" xmlns="http://www.w3.org/2000/svg">
<path d="M3.15116 4H20.8497C21.4414 4 21.9796 4.24244 22.3686 4.63142C22.7585 5.02131 23 5.55954 23 6.15115V16.9024C23 17.4913 22.7576 18.0286 22.3686 18.4194L22.3668 18.4212C21.9751 18.8111 21.4387 19.0527 20.8497 19.0527H3.15115C2.55954 19.0527 2.02131 18.8102 1.63142 18.4212C1.24244 18.0323 1 17.494 1 16.9024V6.15116C1 5.56135 1.24244 5.02312 1.63142 4.63413L1.63323 4.63232C2.02312 4.24334 2.56045 4.0009 3.15025 4.0009L3.15116 4ZM2.15789 15.7815L7.62522 11.5263L2.15789 7.27104V15.7815ZM8.56705 12.2599L2.20676 17.2099C2.25561 17.3601 2.34064 17.494 2.4492 17.6034C2.62921 17.7834 2.87799 17.8956 3.15025 17.8956H20.8488C21.1229 17.8956 21.3717 17.7843 21.5499 17.6061L21.5517 17.6043C21.6603 17.4958 21.7435 17.3619 21.7923 17.2108L15.4321 12.2608L13.593 13.6919C13.1127 14.0637 12.5554 14.2501 12 14.2501C11.4409 14.2501 10.8837 14.0637 10.4061 13.6919L8.56703 12.2608L8.56705 12.2599ZM21.7923 5.84452C21.7425 5.69436 21.6593 5.56047 21.5498 5.45102C21.3698 5.27101 21.121 5.15884 20.8488 5.15884H3.15016C2.87697 5.15884 2.62821 5.27011 2.4482 5.44922C2.33874 5.55867 2.25552 5.69346 2.20576 5.84362C5.17552 8.15488 8.14528 10.4661 11.1162 12.7773C11.3849 12.9863 11.6933 13.0912 12 13.0912C12.3075 13.0912 12.6169 12.9872 12.8829 12.78C15.8526 10.4678 18.8223 8.1566 21.7923 5.84452ZM16.3738 11.5272L21.8411 15.7825V7.27289L16.3738 11.5281V11.5272Z" fill="black"/>
</svg>
