<svg width="38" height="38" viewBox="0 0 38 38" fill="none" xmlns="http://www.w3.org/2000/svg">
<g clip-path="url(#clip0_102_440)">
<path d="M28.2421 1.03152C27.7692 0.784721 27.237 0.674322 26.7049 0.712669C26.1729 0.751016 25.6619 0.936598 25.2293 1.24867C24.8711 1.53157 24.4231 1.67609 23.9672 1.65581C23.4274 1.66177 22.9066 1.45733 22.515 1.08581C21.6472 0.383298 20.5644 0 19.4479 0C18.3313 0 17.2486 0.383298 16.3807 1.08581C15.9832 1.45225 15.4624 1.65568 14.9218 1.65568C14.3812 1.65568 13.8604 1.45225 13.4629 1.08581C12.5976 0.383413 11.517 4.20638e-05 10.4025 4.20638e-05C9.28803 4.20638e-05 8.20746 0.383413 7.34217 1.08581C6.94675 1.45989 6.42071 1.66446 5.87645 1.65581C5.4287 1.67682 4.98893 1.53184 4.64146 1.24867C4.20634 0.935498 3.69222 0.750441 3.15733 0.714462C2.62244 0.678483 2.08816 0.793019 1.61503 1.0451C1.12661 1.29629 0.717221 1.67773 0.432183 2.14721C0.147145 2.61668 -0.0024244 3.15587 2.97214e-05 3.70509V32.3001C-2.80734e-06 33.0873 0.310834 33.8426 0.864906 34.4018C1.41898 34.9609 2.17145 35.2786 2.9586 35.2858H21.0629C19.7166 33.5302 18.991 31.3774 19 29.1651C19 26.4656 20.0724 23.8766 21.9812 21.9677C23.8901 20.0589 26.4791 18.9865 29.1786 18.9865C29.4054 18.9865 29.632 19.0001 29.8571 19.0272V3.69152C29.8585 3.14252 29.7085 2.60377 29.4236 2.13449C29.1387 1.6652 28.7299 1.28357 28.2421 1.03152ZM7.60002 26.3151C7.27792 26.3151 6.96306 26.2196 6.69524 26.0406C6.42742 25.8617 6.21868 25.6073 6.09542 25.3097C5.97216 25.0122 5.93991 24.6847 6.00275 24.3688C6.06559 24.0529 6.22069 23.7627 6.44845 23.5349C6.67621 23.3072 6.96639 23.1521 7.28231 23.0892C7.59822 23.0264 7.92567 23.0586 8.22325 23.1819C8.52083 23.3052 8.77518 23.5139 8.95413 23.7817C9.13308 24.0495 9.22859 24.3644 9.22859 24.6865C9.22859 25.1184 9.05701 25.5327 8.7516 25.8381C8.44618 26.1435 8.03195 26.3151 7.60002 26.3151ZM7.60002 19.5294C7.27792 19.5294 6.96306 19.4339 6.69524 19.2549C6.42742 19.076 6.21868 18.8216 6.09542 18.524C5.97216 18.2264 5.93991 17.899 6.00275 17.5831C6.06559 17.2672 6.22069 16.977 6.44845 16.7492C6.67621 16.5215 6.96639 16.3664 7.28231 16.3035C7.59822 16.2407 7.92567 16.2729 8.22325 16.3962C8.52083 16.5195 8.77518 16.7282 8.95413 16.996C9.13308 17.2638 9.22859 17.5787 9.22859 17.9008C9.22859 18.3327 9.05701 18.747 8.7516 19.0524C8.44618 19.3578 8.03195 19.5294 7.60002 19.5294ZM7.60002 12.4722C7.27735 12.4722 6.96195 12.3764 6.69384 12.1968C6.42574 12.0172 6.21702 11.7621 6.09417 11.4637C5.97131 11.1653 5.93986 10.8372 6.00381 10.5209C6.06776 10.2046 6.22422 9.91449 6.45334 9.68728C6.68246 9.46007 6.97391 9.30604 7.29071 9.24475C7.60751 9.18345 7.93538 9.21764 8.23271 9.34299C8.53005 9.46833 8.78345 9.67918 8.96075 9.94878C9.13806 10.2184 9.23128 10.5346 9.22859 10.8572C9.22771 11.0702 9.18488 11.2809 9.10255 11.4773C9.02023 11.6738 8.90002 11.8521 8.74879 12.002C8.59756 12.152 8.41828 12.2707 8.22117 12.3514C8.02407 12.4321 7.813 12.4731 7.60002 12.4722ZM16.2857 26.0437H12.4857C12.1258 26.0437 11.7806 25.9007 11.5261 25.6462C11.2716 25.3916 11.1286 25.0464 11.1286 24.6865C11.1286 24.3266 11.2716 23.9814 11.5261 23.7269C11.7806 23.4724 12.1258 23.3294 12.4857 23.3294H16.2857C16.6457 23.3294 16.9909 23.4724 17.2454 23.7269C17.4999 23.9814 17.6429 24.3266 17.6429 24.6865C17.6429 25.0464 17.4999 25.3916 17.2454 25.6462C16.9909 25.9007 16.6457 26.0437 16.2857 26.0437ZM22.5286 19.2579H12.4857C12.1258 19.2579 11.7806 19.115 11.5261 18.8604C11.2716 18.6059 11.1286 18.2607 11.1286 17.9008C11.1286 17.5409 11.2716 17.1957 11.5261 16.9412C11.7806 16.6866 12.1258 16.5437 12.4857 16.5437H22.5286C22.8885 16.5437 23.2337 16.6866 23.4882 16.9412C23.7427 17.1957 23.8857 17.5409 23.8857 17.9008C23.8857 18.2607 23.7427 18.6059 23.4882 18.8604C23.2337 19.115 22.8885 19.2579 22.5286 19.2579ZM22.5286 12.2144H12.4857C12.1258 12.2144 11.7806 12.0714 11.5261 11.8169C11.2716 11.5624 11.1286 11.2172 11.1286 10.8572C11.1286 10.4973 11.2716 10.1521 11.5261 9.89759C11.7806 9.64307 12.1258 9.50009 12.4857 9.50009H22.5286C22.8885 9.50009 23.2337 9.64307 23.4882 9.89759C23.7427 10.1521 23.8857 10.4973 23.8857 10.8572C23.8857 11.2172 23.7427 11.5624 23.4882 11.8169C23.2337 12.0714 22.8885 12.2144 22.5286 12.2144Z" fill="white"/>
<path d="M29.1784 20.3438C27.4336 20.3437 25.7281 20.8611 24.2774 21.8304C22.8268 22.7997 21.6961 24.1775 21.0284 25.7894C20.3608 27.4013 20.1861 29.175 20.5264 30.8861C20.8668 32.5973 21.707 34.1692 22.9407 35.4029C24.1744 36.6366 25.7462 37.4767 27.4574 37.8171C29.1686 38.1575 30.9423 37.9828 32.5542 37.3151C34.1661 36.6474 35.5438 35.5168 36.5131 34.0661C37.4824 32.6154 37.9998 30.9099 37.9998 29.1652C37.9969 26.8265 37.0666 24.5844 35.4129 22.9307C33.7592 21.2769 31.5171 20.3466 29.1784 20.3438ZM32.8521 28.3156L29.234 31.9351C29.108 32.0613 28.9583 32.1614 28.7935 32.2297C28.6288 32.298 28.4522 32.3331 28.2738 32.3331C28.0955 32.3331 27.9189 32.298 27.7541 32.2297C27.5894 32.1614 27.4397 32.0613 27.3136 31.9351L25.5046 30.1247C25.2574 29.8687 25.1206 29.5259 25.1237 29.1701C25.1268 28.8142 25.2695 28.4738 25.5211 28.2222C25.7727 27.9706 26.1131 27.8278 26.469 27.8248C26.8248 27.8217 27.1676 27.9585 27.4236 28.2057L28.2731 29.0552L30.9331 26.3952C31.0592 26.2692 31.2089 26.1693 31.3736 26.1011C31.5383 26.033 31.7149 25.9979 31.8931 25.998C32.0714 25.9981 32.2479 26.0332 32.4125 26.1015C32.5772 26.1698 32.7268 26.2698 32.8528 26.3959C32.9788 26.522 33.0788 26.6717 33.1469 26.8364C33.2151 27.0011 33.2501 27.1776 33.2501 27.3559C33.25 27.5342 33.2148 27.7107 33.1465 27.8753C33.0783 28.04 32.9782 28.1896 32.8521 28.3156Z" fill="white"/>
</g>
<defs>
<clipPath id="clip0_102_440">
<rect width="38" height="38" fill="white"/>
</clipPath>
</defs>
</svg>
