<svg width="38" height="38" viewBox="0 0 38 38" fill="none" xmlns="http://www.w3.org/2000/svg">
<path fill-rule="evenodd" clip-rule="evenodd" d="M6.26489 2.21109C6.13461 2.08081 5.95485 2 5.75861 2C5.56236 2 5.3826 2.08081 5.25233 2.21109C5.12205 2.34137 5.04123 2.52114 5.04123 2.71738V5.26864C5.04123 5.46489 5.12204 5.64465 5.25233 5.77493C5.38261 5.90521 5.56237 5.98602 5.75861 5.98602C5.95486 5.98602 6.13462 5.90521 6.26489 5.77493C6.39518 5.64465 6.47599 5.46488 6.47599 5.26864V2.71738C6.47599 2.52113 6.39518 2.34137 6.26489 2.21109ZM15.6404 2.21109C15.5101 2.08081 15.3303 2 15.1341 2C14.9378 2 14.7581 2.08081 14.6278 2.21109C14.4975 2.34137 14.4167 2.52114 14.4167 2.71738V5.26864C14.4167 5.46489 14.4975 5.64465 14.6278 5.77493C14.7581 5.90521 14.9378 5.98602 15.1341 5.98602C15.3303 5.98602 15.5101 5.90521 15.6404 5.77493C15.7706 5.64465 15.8515 5.46488 15.8515 5.26864V2.71738C15.8515 2.52113 15.7706 2.34137 15.6404 2.21109ZM23.7923 3.83718V3.83883V3.84048V5.26865C23.7923 5.4649 23.8732 5.64466 24.0034 5.77493C24.1337 5.90522 24.3135 5.98603 24.5097 5.98603C24.706 5.98603 24.8857 5.90522 25.016 5.77493C25.1463 5.64465 25.2271 5.46489 25.2271 5.26865V2.71738C25.2271 2.52113 25.1463 2.34138 25.016 2.2111C24.8857 2.08082 24.706 2.00001 24.5097 2.00001C24.3135 2.00001 24.1337 2.08082 24.0034 2.2111C23.8732 2.34138 23.7923 2.52114 23.7923 2.71738V3.83718ZM7.79236 15.2957H4.44127V18.6468H7.79236V15.2957ZM3.90695 14.2271H8.32681C8.62201 14.2271 8.86112 14.4662 8.86112 14.7614V19.1813C8.86112 19.4765 8.62199 19.7156 8.32681 19.7156H3.90695C3.61175 19.7156 3.37263 19.4764 3.37263 19.1813V14.7614C3.37263 14.4662 3.61176 14.2271 3.90695 14.2271ZM16.8098 15.2957H13.4587V18.6468H16.8098V15.2957ZM12.9244 14.2271H17.3442C17.6394 14.2271 17.8785 14.4662 17.8785 14.7614V19.1813C17.8785 19.4765 17.6394 19.7156 17.3442 19.7156H12.9244C12.6292 19.7156 12.39 19.4764 12.39 19.1813V14.7614C12.39 14.4662 12.6292 14.2271 12.9244 14.2271ZM7.79228 22.9857H4.44118V26.3368H7.79228V22.9857ZM3.90686 21.9171H8.32672C8.62192 21.9171 8.86104 22.1562 8.86104 22.4514V26.8713C8.86104 27.1665 8.62191 27.4056 8.32672 27.4056H3.90686C3.61166 27.4056 3.37254 27.1665 3.37254 26.8713V22.4514C3.37254 22.1562 3.61167 21.9171 3.90686 21.9171ZM30.2685 6.86999L27.3298 9.78569H0V5.01795C0 4.84149 0.0725653 4.67987 0.189654 4.56279C0.306743 4.4457 0.468364 4.37314 0.644812 4.37314H3.97282V5.26864C3.97282 5.7601 4.17401 6.20703 4.49726 6.53025C4.82049 6.85349 5.26741 7.05469 5.75887 7.05469C6.25034 7.05469 6.69726 6.8535 7.02049 6.53025C7.34371 6.20701 7.54493 5.7601 7.54493 5.26864V4.37314H13.3483V5.26864C13.3483 5.7601 13.5495 6.20703 13.8727 6.53025C14.196 6.85348 14.6429 7.05469 15.1343 7.05469C15.6258 7.05469 16.0727 6.8535 16.396 6.53025C16.7192 6.20701 16.9204 5.7601 16.9204 5.26864V4.37314H22.7238V5.26864C22.7238 5.7601 22.925 6.20703 23.2482 6.53025C23.5714 6.85348 24.0184 7.05469 24.5098 7.05469C25.0013 7.05469 25.4482 6.8535 25.7714 6.53025C26.0947 6.20702 26.2959 5.7601 26.2959 5.26864V4.37314H29.6239C29.8003 4.37314 29.962 4.4457 30.079 4.56279C30.1961 4.67988 30.2687 4.8415 30.2687 5.01795L30.2685 6.86999ZM26.1588 12.9786L25.4299 15.5397L27.9976 14.8306L26.1604 12.9769L26.1588 12.9786ZM33.379 6.9063L32.5693 6.08996C30.5952 8.04751 28.6228 10.0051 26.649 11.9609L27.4587 12.7772L33.379 6.9063ZM34.9391 8.47962L34.1294 7.66328L28.2091 13.5342L29.0188 14.3505C30.9929 12.393 32.9653 10.4354 34.9391 8.47962ZM37.2034 6.23347L37.8565 5.58533C37.9505 5.49132 37.9984 5.36763 38 5.24395C38 5.12026 37.9538 4.99493 37.8615 4.90093L36.1991 3.22536C36.0837 3.12476 36.0128 3.05549 35.8297 3.05549C35.7143 3.05549 35.5988 3.09507 35.5065 3.17588C35.2937 3.39852 35.0546 3.62281 34.8319 3.84378L37.2018 6.23344L37.2034 6.23347ZM33.605 4.1176C34.7099 5.23242 35.8149 6.3456 36.9198 7.45882L36.1695 8.20423C35.0645 7.0894 33.9596 5.97623 32.8546 4.86301L33.605 4.1176ZM29.5349 22.7562C28.4398 21.6612 26.9292 20.985 25.2586 20.985C23.5879 20.985 22.0773 21.6612 20.9822 22.7562C19.8872 23.8513 19.211 25.3619 19.211 27.0326C19.211 28.7032 19.8872 30.2138 20.9822 31.3089C22.0773 32.4039 23.5879 33.0801 25.2586 33.0801C26.9292 33.0801 28.4398 32.4039 29.5349 31.3089C30.6299 30.2139 31.3061 28.7032 31.3061 27.0326C31.3061 25.3619 30.6299 23.8513 29.5349 22.7562ZM25.2586 19.9164C27.2227 19.9164 29.0022 20.7129 30.2902 22.0009C31.5782 23.2889 32.3747 25.0683 32.3747 27.0325C32.3747 28.9967 31.5782 30.7761 30.2902 32.0641C29.0022 33.3521 27.2227 34.1487 25.2586 34.1487C23.2944 34.1487 21.515 33.3521 20.2269 32.0641C18.9389 30.7761 18.1424 28.9967 18.1424 27.0325C18.1424 25.0684 18.9389 23.2889 20.2269 22.0009C21.515 20.7129 23.2944 19.9164 25.2586 19.9164ZM24.7242 23.2147C24.7242 22.9195 24.9634 22.6804 25.2586 22.6804C25.5537 22.6804 25.7929 22.9195 25.7929 23.2147V26.6284L27.9384 27.8785C28.1924 28.0253 28.2798 28.3518 28.133 28.6074C27.9862 28.8614 27.6597 28.9488 27.4041 28.802L25.0243 27.4168C24.8479 27.3294 24.7258 27.148 24.7258 26.9369V23.218L24.7242 23.2147ZM31.3475 20.9438C32.9059 22.5023 33.8691 24.6544 33.8691 27.0326C33.8691 29.4106 32.906 31.5626 31.3475 33.1213C29.789 34.68 27.6369 35.6429 25.2587 35.6429C22.8806 35.6429 20.7287 34.6798 19.17 33.1213C17.6113 31.5628 16.6484 29.4107 16.6484 27.0326C16.6484 24.6545 17.6115 22.5025 19.17 20.9438C20.7285 19.3851 22.8806 18.4222 25.2587 18.4222C27.6368 18.4222 29.7888 19.3853 31.3475 20.9438ZM15.6046 26.3351C15.6887 25.1461 15.9889 24.0164 16.4638 22.984H13.4591V26.3351H15.6046ZM30.2688 18.7489C28.8077 17.8632 27.0925 17.3537 25.2587 17.3537C22.5854 17.3537 20.1663 18.4372 18.4147 20.1886C17.8935 20.7097 17.4318 21.2886 17.0409 21.9169H12.9263C12.6311 21.9169 12.3919 22.156 12.3919 22.4512V26.8711C12.3919 27.1663 12.6311 27.4054 12.9263 27.4054H15.588C15.6309 28.5219 15.8618 29.5905 16.251 30.5784L0.644888 30.5767C0.468428 30.5767 0.306811 30.5042 0.18973 30.3871C0.0726412 30.27 7.60966e-05 30.1084 7.60966e-05 29.9319V10.8529H26.2516L25.5441 11.5555C25.4682 11.6214 25.4105 11.7089 25.3825 11.8111L24.1439 16.16C24.0631 16.4437 24.228 16.7389 24.5117 16.8197C24.6222 16.851 24.7327 16.8461 24.8333 16.8098L29.1476 15.6191C29.2152 15.6026 29.2795 15.5729 29.3372 15.5284L29.3389 15.5268L29.3471 15.5202L29.3504 15.5185L29.357 15.5136L29.3669 15.5037L29.3719 15.5004L29.395 15.4773L30.2723 14.6082V18.7459L30.2688 18.7489Z" fill="white"/>
</svg>
