<svg width="38" height="38" viewBox="0 0 38 38" fill="none" xmlns="http://www.w3.org/2000/svg">
<path fill-rule="evenodd" clip-rule="evenodd" d="M6.09059 36.5615H31.909V34.5712C31.909 33.4766 30.788 32.5808 29.4179 32.5808H24.9713V27.9396H35.0786C36.6853 27.9396 38 26.6249 38 25.0182V4.92137C38 3.31474 36.6853 2 35.0786 2H2.92137C1.31474 2 0 3.31474 0 4.92137V25.0182C0 26.6249 1.31474 27.9396 2.92137 27.9396H13.0287V32.5808H8.58167C7.21158 32.5808 6.09059 33.4766 6.09059 34.5712V36.5615ZM13.4632 8.63242C14.221 8.7813 14.9251 9.07947 15.5437 9.49507L16.6534 9.00231L17.6087 9.95722L17.116 11.0665C17.5316 11.6855 17.8297 12.3896 17.9786 13.1474L19.1105 13.5831V14.9339L17.9782 15.3697C17.8293 16.1275 17.5311 16.8316 17.1155 17.4502L17.6083 18.5599L16.6534 19.5152L15.5441 19.0224C14.9251 19.438 14.221 19.7362 13.4632 19.8851L13.0275 21.017H11.6767L11.2409 19.8847C10.4831 19.7358 9.77899 19.4376 9.16041 19.022L8.05074 19.5148L7.09541 18.5599L7.58817 17.4506C7.17257 16.8316 6.8744 16.1275 6.72552 15.3697L5.59363 14.9339V13.5831L6.72594 13.1474C6.87482 12.3896 7.17299 11.6855 7.58859 11.0669L7.09583 9.95764L8.05074 9.00231L9.16041 9.49507C9.77941 9.07947 10.4831 8.7813 11.2409 8.63242L11.6767 7.5001H13.0275L13.4632 8.63242ZM12.3519 11.2749C13.9996 11.2749 15.3357 12.6106 15.3357 14.2588C15.3357 15.9065 14 17.2426 12.3519 17.2426C10.7041 17.2426 9.368 15.9069 9.368 14.2588C9.36842 12.611 10.7041 11.2749 12.3519 11.2749ZM27.0417 7.52443C27.6192 6.52422 28.64 6.03607 29.6859 6.0931L28.2428 8.59258L28.9914 9.88886H30.4882L31.9312 7.38939C32.5033 8.2663 32.5913 9.39442 32.0134 10.3946C31.4359 11.3948 30.278 11.9484 29.1659 11.8075L25.6947 17.8197C26.3728 18.7125 26.4722 19.9916 25.8947 20.9922C25.3173 21.9925 24.2965 22.4806 23.2506 22.4236L24.6936 19.9241L23.9451 18.6278H22.4483L21.0052 21.1273C20.4332 20.2504 20.3451 19.1222 20.923 18.1216C21.5005 17.1214 22.6584 16.5678 23.7706 16.7087L27.2418 10.6966C26.5641 9.80415 26.4642 8.52506 27.0417 7.52443ZM2.84798 4.44286H35.1516C35.3743 4.44286 35.5567 4.62529 35.5567 4.84798V24.0746H2.44286V4.84798C2.44286 4.62529 2.62529 4.44286 2.84798 4.44286Z" fill="white"/>
</svg>
